<svg aria-hidden="true" style="position: absolute; width: 0; height: 0; overflow: hidden;" version="1.1" xmlns="http://www.w3.org/2000/svg" xmlns:xlink="http://www.w3.org/1999/xlink">
<defs>
<symbol id="warm" viewBox="0 0 55 32">
<path d="M1.598 7.875c0.008-0.535-0.42-0.976-0.956-0.984l0.106-6.891c4.351 0.067 7.824 3.64 7.758 7.981l-0.22 14.321c-0.008 0.535 0.42 0.976 0.956 0.984s0.978-0.419 0.986-0.954l0.22-14.321c0.066-4.341 3.648-7.807 7.999-7.74s7.824 3.64 7.758 7.981l-0.22 14.321c-0.008 0.535 0.42 0.976 0.957 0.984s0.978-0.419 0.986-0.954l0.22-14.321c0.066-4.341 3.648-7.807 7.999-7.74s7.825 3.64 7.758 7.981l-0.219 14.321c-0.008 0.535 0.42 0.976 0.956 0.984s0.978-0.419 0.986-0.954l0.219-14.321c0.067-4.341 3.648-7.807 7.999-7.74l-0.106 6.891c-0.536-0.008-0.978 0.419-0.986 0.954l-0.22 14.321c-0.066 4.341-3.648 7.806-7.999 7.74s-7.825-3.64-7.758-7.981l0.219-14.321c0.008-0.535-0.42-0.976-0.956-0.984s-0.978 0.419-0.986 0.954l-0.219 14.321c-0.067 4.341-3.648 7.807-7.999 7.74s-7.824-3.64-7.758-7.981l0.22-14.321c0.008-0.535-0.42-0.976-0.956-0.984s-0.978 0.419-0.986 0.954l-0.22 14.321c-0.066 4.341-3.648 7.806-7.999 7.74s-7.824-3.64-7.758-7.981l0.22-14.321z"></path>
</symbol>
<symbol id="shipping-car" viewBox="0 0 24 24">
<path d="M18 18.516q0.656 0 1.078-0.445t0.422-1.055-0.422-1.055-1.078-0.445-1.078 0.445-0.422 1.055 0.422 1.055 1.078 0.445zM19.5 9.516h-2.484v2.484h4.453zM6 18.516q0.656 0 1.078-0.445t0.422-1.055-0.422-1.055-1.078-0.445-1.078 0.445-0.422 1.055 0.422 1.055 1.078 0.445zM20.016 8.016l3 3.984v5.016h-2.016q0 1.219-0.891 2.109t-2.109 0.891-2.109-0.891-0.891-2.109h-6q0 1.219-0.891 2.109t-2.109 0.891-2.109-0.891-0.891-2.109h-2.016v-11.016q0-0.797 0.609-1.406t1.406-0.609h14.016v4.031h3z"></path>
</symbol>
<symbol id="squares" viewBox="0 0 32 32">
<path d="M24.384 5.143l-7.693-3.013-3.013 7.693-7.693-3.013-3.013 7.693 7.693 3.013-3.013 7.693 7.693 3.013 3.013-7.693 7.693 3.013 3.013-7.693-7.693-3.013 3.013-7.693zM21.371 12.835l-3.013 7.693-7.693-3.013 3.013-7.693 7.693 3.013z"></path>
</symbol>
<symbol id="nova_poshta" viewBox="0 0 32 32">
<path d="M18.815 25.973v-6.656h-5.642v6.656h-4.319l5.237 5.239c1.053 1.049 2.756 1.049 3.809 0l5.239-5.239h-4.324zM6.023 23.15v-14.3l-5.235 5.237c-1.051 1.051-1.051 2.758 0 3.809l5.235 5.254zM13.167 6.018v6.654h5.648v-6.654h4.324l-5.247-5.228c-1.051-1.051-2.758-1.051-3.809 0l-5.232 5.228h4.315zM31.195 14.080l-5.233-5.228v14.285l5.239-5.239c1.057-1.042 1.070-2.741 0.028-3.798l-0.006-0.006h-0.022l-0.006-0.015z"></path>
</symbol>
</defs>
</svg>