<svg aria-hidden="true" style="position: absolute; width: 0; height: 0; overflow: hidden;" version="1.1" xmlns="http://www.w3.org/2000/svg" xmlns:xlink="http://www.w3.org/1999/xlink">
<defs>
<symbol id="warm" viewBox="0 0 55 32">
<path d="M1.598 7.875c0.008-0.535-0.42-0.976-0.956-0.984l0.106-6.891c4.351 0.067 7.824 3.64 7.758 7.981l-0.22 14.321c-0.008 0.535 0.42 0.976 0.956 0.984s0.978-0.419 0.986-0.954l0.22-14.321c0.066-4.341 3.648-7.807 7.999-7.74s7.824 3.64 7.758 7.981l-0.22 14.321c-0.008 0.535 0.42 0.976 0.957 0.984s0.978-0.419 0.986-0.954l0.22-14.321c0.066-4.341 3.648-7.807 7.999-7.74s7.825 3.64 7.758 7.981l-0.219 14.321c-0.008 0.535 0.42 0.976 0.956 0.984s0.978-0.419 0.986-0.954l0.219-14.321c0.067-4.341 3.648-7.807 7.999-7.74l-0.106 6.891c-0.536-0.008-0.978 0.419-0.986 0.954l-0.22 14.321c-0.066 4.341-3.648 7.806-7.999 7.74s-7.825-3.64-7.758-7.981l0.219-14.321c0.008-0.535-0.42-0.976-0.956-0.984s-0.978 0.419-0.986 0.954l-0.219 14.321c-0.067 4.341-3.648 7.807-7.999 7.74s-7.824-3.64-7.758-7.981l0.22-14.321c0.008-0.535-0.42-0.976-0.956-0.984s-0.978 0.419-0.986 0.954l-0.22 14.321c-0.066 4.341-3.648 7.806-7.999 7.74s-7.824-3.64-7.758-7.981l0.22-14.321z"></path>
</symbol>
<symbol id="shipping-car" viewBox="0 0 24 24">
<path d="M18 18.516q0.656 0 1.078-0.445t0.422-1.055-0.422-1.055-1.078-0.445-1.078 0.445-0.422 1.055 0.422 1.055 1.078 0.445zM19.5 9.516h-2.484v2.484h4.453zM6 18.516q0.656 0 1.078-0.445t0.422-1.055-0.422-1.055-1.078-0.445-1.078 0.445-0.422 1.055 0.422 1.055 1.078 0.445zM20.016 8.016l3 3.984v5.016h-2.016q0 1.219-0.891 2.109t-2.109 0.891-2.109-0.891-0.891-2.109h-6q0 1.219-0.891 2.109t-2.109 0.891-2.109-0.891-0.891-2.109h-2.016v-11.016q0-0.797 0.609-1.406t1.406-0.609h14.016v4.031h3z"></path>
</symbol>
<symbol id="icon-about-check" viewBox="0 0 48 32">
<path d="M16.448 32l-16.448-15.104 3.296-3.024 13.152 12.074 28.256-25.946 3.296 3.027-31.552 28.973z"></path>
</symbol>
<symbol id="icon-about-face" viewBox="0 0 32 32">
<path d="M10.185 15.742c1.072 0 1.973-0.384 2.706-1.147 0.731-0.763 1.253-1.678 1.561-2.736l-1.943-0.478c-0.171 0.617-0.448 1.166-0.832 1.639-0.338 0.436-0.861 0.714-1.449 0.714-0.015 0-0.030-0-0.045-0.001l0.002 0c-0.012 0-0.027 0-0.041 0-0.588 0-1.112-0.278-1.446-0.709l-0.003-0.004c-0.373-0.461-0.66-1.009-0.827-1.607l-0.008-0.032-1.941 0.478c0.309 1.058 0.83 1.973 1.561 2.736s1.634 1.147 2.704 1.147zM16.005 25.003c1.029 0 2.011-0.224 2.96-0.672 0.944-0.448 1.826-1.113 2.642-2l-1.463-1.344c-0.631 0.64-1.296 1.129-1.998 1.463-0.702 0.336-1.417 0.503-2.146 0.503-0.731 0-1.445-0.167-2.149-0.503-0.772-0.385-1.431-0.875-1.991-1.46l-0.003-0.003-1.463 1.344c0.843 0.896 1.733 1.566 2.667 2.009s1.915 0.663 2.942 0.663zM21.815 15.742c1.070 0 1.97-0.384 2.704-1.147 0.731-0.763 1.253-1.678 1.561-2.736l-1.943-0.478c-0.171 0.617-0.448 1.166-0.832 1.639-0.338 0.436-0.861 0.714-1.449 0.714-0.014 0-0.029-0-0.043-0.001l0.002 0c-0.013 0-0.028 0.001-0.043 0.001-0.588 0-1.112-0.278-1.446-0.709l-0.003-0.004c-0.373-0.461-0.66-1.009-0.827-1.607l-0.008-0.032-1.941 0.478c0.309 1.058 0.83 1.973 1.561 2.736s1.634 1.147 2.706 1.147zM16 32c-0.030 0-0.066 0-0.102 0-2.218 0-4.328-0.463-6.238-1.299l0.1 0.039c-1.973-0.851-3.659-2.004-5.082-3.42l0.001 0.001c-1.416-1.422-2.569-3.108-3.379-4.977l-0.040-0.105c-0.796-1.809-1.26-3.918-1.26-6.135 0-0.037 0-0.074 0-0.11l-0 0.006c0-2.213 0.421-4.293 1.259-6.24 0.851-1.973 2.004-3.659 3.42-5.082l-0.001 0.001c1.44-1.438 3.131-2.576 5.081-3.419 1.809-0.796 3.918-1.26 6.135-1.26 0.037 0 0.074 0 0.11 0l-0.006-0c2.213 0 4.293 0.421 6.24 1.259 1.973 0.851 3.659 2.004 5.082 3.42l-0.001-0.001c1.44 1.44 2.581 3.131 3.422 5.079 0.839 1.947 1.259 4.027 1.259 6.24s-0.421 4.293-1.259 6.24c-0.851 1.973-2.004 3.659-3.42 5.082l0.001-0.001c-1.44 1.44-3.131 2.581-5.079 3.422-1.809 0.796-3.918 1.26-6.135 1.26-0.038 0-0.077-0-0.115-0l0.006 0zM16 29.474c3.762 0 6.949-1.305 9.559-3.915 2.61-2.613 3.915-5.797 3.915-9.559s-1.305-6.949-3.915-9.559c-2.613-2.61-5.797-3.915-9.559-3.915s-6.949 1.305-9.559 3.915c-2.61 2.613-3.915 5.797-3.915 9.559s1.305 6.949 3.915 9.559c2.613 2.61 5.797 3.915 9.559 3.915z"></path>
</symbol>
<symbol id="icon-about-hands" viewBox="0 0 34 32">
<path d="M16.793 29.472c0.16 0 0.325-0.039 0.491-0.117 0.152-0.068 0.282-0.158 0.393-0.268l-0 0 13.051-13.486c0.366-0.377 0.645-0.784 0.83-1.216 0.187-0.434 0.279-0.887 0.279-1.362 0-0.008 0-0.017 0-0.026 0-1.030-0.425-1.96-1.11-2.624l-0.001-0.001-6.526-6.743c-0.313-0.35-0.693-0.632-1.122-0.828l-0.021-0.009c-0.384-0.168-0.832-0.265-1.303-0.265-0.009 0-0.018 0-0.026 0h0.001c-0.462 0-0.903 0.089-1.326 0.265-0.461 0.201-0.851 0.483-1.17 0.832l-0.002 0.003-0.937 0.967 3.019 3.145c0.366 0.361 0.638 0.773 0.811 1.234 0.176 0.464 0.263 0.944 0.263 1.44 0 1.029-0.334 1.888-0.999 2.574-0.663 0.688-1.495 1.031-2.491 1.031-0.48 0-0.946-0.082-1.397-0.245-0.472-0.176-0.873-0.445-1.199-0.787l-0.001-0.001-3.090-3.168-7.093 7.328c-0.229 0.232-0.37 0.551-0.37 0.902 0 0.004 0 0.008 0 0.013v-0.001c0 0.311 0.103 0.576 0.309 0.798 0.206 0.219 0.457 0.329 0.759 0.329 0.346-0.012 0.656-0.156 0.885-0.382l-0 0 5.36-5.538 1.719 1.778-5.335 5.536c-0.229 0.232-0.37 0.551-0.37 0.902 0 0.004 0 0.008 0 0.013v-0.001c0 0.302 0.105 0.56 0.315 0.777 0.185 0.201 0.45 0.327 0.744 0.327 0.004 0 0.007-0 0.011-0h-0.001c0.16 0 0.322-0.039 0.489-0.119 0.152-0.068 0.282-0.157 0.393-0.265l-0 0 5.547-5.705 1.719 1.776-5.522 5.733c-0.119 0.11-0.211 0.246-0.267 0.4l-0.002 0.007c-0.062 0.15-0.099 0.324-0.101 0.507v0.001c0 0.299 0.105 0.56 0.315 0.777 0.185 0.2 0.449 0.325 0.742 0.325 0.004 0 0.009-0 0.013-0h-0.001c0.348-0 0.661-0.147 0.882-0.381l0.001-0.001 5.547-5.707 1.719 1.778-5.545 5.73c-0.225 0.245-0.364 0.571-0.37 0.929l-0 0.001c0 0.313 0.112 0.571 0.334 0.777 0.224 0.206 0.478 0.311 0.757 0.311zM16.77 32c-0.923 0-1.728-0.331-2.414-0.992-0.655-0.622-1.066-1.496-1.077-2.467l-0-0.002c-0.908-0.045-1.719-0.426-2.318-1.020l0 0c-0.619-0.615-0.955-1.422-1.008-2.418-0.967-0.066-1.749-0.414-2.345-1.049-0.594-0.633-0.914-1.429-0.955-2.389-0.949-0.040-1.795-0.45-2.403-1.089l-0.001-0.001c-0.631-0.663-0.946-1.502-0.946-2.514 0-0.498 0.091-0.983 0.274-1.463 0.183-0.475 0.448-0.894 0.8-1.255l8.834-9.102 4.777 4.937c0.102 0.119 0.229 0.214 0.373 0.276l0.007 0.003c0.147 0.066 0.318 0.105 0.499 0.105 0.002 0 0.005 0 0.007-0h-0c0.297 0 0.553-0.103 0.77-0.306 0.199-0.191 0.323-0.459 0.323-0.756 0-0.015-0-0.029-0.001-0.043l0 0.002c0-0.004 0-0.008 0-0.012 0-0.184-0.037-0.36-0.104-0.52l0.003 0.009c-0.062-0.153-0.154-0.283-0.269-0.388l-0.001-0.001-5.721-5.92c-0.314-0.35-0.697-0.632-1.129-0.826l-0.021-0.009c-0.388-0.168-0.84-0.265-1.314-0.265-0.008 0-0.016 0-0.024 0h0.001c-0.006-0-0.013-0-0.021-0-0.976 0-1.854 0.423-2.459 1.096l-0.003 0.003-5.362 5.566c-0.297 0.309-0.539 0.67-0.729 1.088s-0.299 0.846-0.334 1.28c-0.011 0.11-0.018 0.239-0.018 0.369 0 0.246 0.023 0.487 0.067 0.721l-0.004-0.024c0.066 0.35 0.181 0.681 0.343 0.99l-1.801 1.861c-0.67-1.017-1.069-2.264-1.069-3.604 0-0.924 0.19-1.804 0.532-2.603l-0.016 0.043c0.306-0.722 0.734-1.369 1.285-1.936l5.344-5.522c0.557-0.571 1.218-1.038 1.953-1.369l0.040-0.016c0.72-0.311 1.474-0.466 2.263-0.466 0.791 0 1.543 0.155 2.258 0.466 0.713 0.309 1.367 0.77 1.959 1.385l0.937 0.967 0.933-0.967c0.61-0.615 1.271-1.074 1.986-1.385s1.465-0.466 2.258-0.466c0.789 0 1.543 0.155 2.263 0.466 0.718 0.309 1.374 0.77 1.968 1.385l6.487 6.702c0.594 0.613 1.049 1.312 1.365 2.096s0.473 1.584 0.473 2.4c0 0.818-0.16 1.595-0.473 2.331-0.345 0.785-0.805 1.457-1.366 2.028l-13.050 13.457c-0.336 0.353-0.74 0.638-1.19 0.836l-0.024 0.009c-0.414 0.182-0.897 0.288-1.404 0.288-0.004 0-0.008 0-0.012-0h0.001z"></path>
</symbol>
<symbol id="icon-about-hope" viewBox="0 0 32 32">
<path d="M29.501 22.090s3.075-6.241 1.029-11.786c-2.046-5.544-8.438-8.292-8.438-8.292l-0.044 0.094 0.029-0.063 0.014-0.032s-6.241-3.074-11.786-1.028c-5.544 2.046-8.292 8.437-8.292 8.437s6.241 3.075 11.786 1.029c5.067-1.871 7.798-7.37 8.231-8.303-0.427 0.934-2.835 6.583-0.965 11.651 2.046 5.544 8.438 8.292 8.438 8.292zM0.983 21.208c-2.047-5.546 1.028-11.786 1.028-11.786s6.391 2.748 8.437 8.292c1.87 5.068-0.537 10.717-0.965 11.651 0.432-0.932 3.164-6.432 8.232-8.303 5.544-2.045 11.785 1.029 11.785 1.029s-2.748 6.391-8.292 8.437c-5.544 2.045-11.785-1.029-11.785-1.029l0.042-0.094c-0.026 0.059-0.041 0.089-0.057 0.12l0.012-0.026s-6.391-2.749-8.437-8.292z"></path>
</symbol>
<symbol id="icon-about-lamp" viewBox="0 0 24 32">
<path d="M12 32c-0.866 0-1.612-0.294-2.24-0.88-0.593-0.538-0.977-1.296-1.024-2.144l-0-0.008h6.528c-0.047 0.856-0.431 1.614-1.021 2.15l-0.003 0.002c-0.628 0.586-1.374 0.88-2.24 0.88zM5.572 26.646v-2.516h12.856v2.516h-12.856zM5.836 21.806c-1.765-1.069-3.203-2.511-4.235-4.225l-0.031-0.055c-0.987-1.627-1.57-3.593-1.57-5.695 0-0.032 0-0.064 0-0.096l-0 0.005c0-3.266 1.164-6.042 3.494-8.32 2.33-2.28 5.166-3.42 8.506-3.42s6.176 1.14 8.506 3.42c2.33 2.28 3.494 5.054 3.494 8.32 0 2.092-0.524 4.020-1.57 5.782-1.063 1.77-2.501 3.213-4.211 4.251l-0.055 0.031h-12.328zM6.6 19.29h10.8c1.286-0.894 2.28-2 2.98-3.312 0.7-1.314 1.048-2.726 1.048-4.236 0-2.572-0.914-4.752-2.742-6.542s-4.058-2.684-6.686-2.684-4.858 0.894-6.686 2.684c-1.828 1.79-2.742 3.97-2.742 6.542 0 1.51 0.35 2.92 1.050 4.236 0.7 1.314 1.692 2.418 2.978 3.312z"></path>
</symbol>
<symbol id="icon-about-rectangle" viewBox="0 0 32 32">
<path d="M0 28.139l28.139 3.271 3.271-28.139-28.139-3.271z"></path>
</symbol>
<symbol id="icon-about-spiral" viewBox="0 0 28 32">
<path stroke-linejoin="miter" stroke-linecap="round" stroke-miterlimit="4" stroke-width="1.2632" d="M16.051 16.876c0.029 0.326-0.579 0.505-0.893 0-0.34-0.446-0.090-1.482 0.893-1.781 0.926-0.354 2.391 0.325 2.679 1.781 0.367 1.4-0.741 3.288-2.679 3.563-1.877 0.378-4.204-1.154-4.464-3.563-0.395-2.351 1.575-5.097 4.464-5.345 2.834-0.405 6.014 1.984 6.25 5.345 0.419 3.301-2.405 6.905-6.25 7.126-3.788 0.432-7.826-2.815-8.035-7.126-0.445-4.256 3.235-8.712 8.035-8.908 4.74-0.457 9.64 3.643 9.821 8.908 0.473 5.206-4.068 10.52-9.821 10.689-5.695 0.484-11.45-4.473-11.607-10.689-0.497-6.157 4.898-12.328 11.607-12.471 6.649-0.511 13.264 5.304 13.393 12.471 0.525 7.111-5.731 14.135-13.393 14.252-7.602 0.536-15.076-6.132-15.178-14.252-0.55-8.061 6.562-15.944 15.178-16.034"></path>
</symbol>
</defs>
</svg>