<svg aria-hidden="true" style="position: absolute; width: 0; height: 0; overflow: hidden;" version="1.1" xmlns="http://www.w3.org/2000/svg" xmlns:xlink="http://www.w3.org/1999/xlink">
<defs>
<symbol id="warm" viewBox="0 0 55 32">
<path d="M1.598 7.875c0.008-0.535-0.42-0.976-0.956-0.984l0.106-6.891c4.351 0.067 7.824 3.64 7.758 7.981l-0.22 14.321c-0.008 0.535 0.42 0.976 0.956 0.984s0.978-0.419 0.986-0.954l0.22-14.321c0.066-4.341 3.648-7.807 7.999-7.74s7.824 3.64 7.758 7.981l-0.22 14.321c-0.008 0.535 0.42 0.976 0.957 0.984s0.978-0.419 0.986-0.954l0.22-14.321c0.066-4.341 3.648-7.807 7.999-7.74s7.825 3.64 7.758 7.981l-0.219 14.321c-0.008 0.535 0.42 0.976 0.956 0.984s0.978-0.419 0.986-0.954l0.219-14.321c0.067-4.341 3.648-7.807 7.999-7.74l-0.106 6.891c-0.536-0.008-0.978 0.419-0.986 0.954l-0.22 14.321c-0.066 4.341-3.648 7.806-7.999 7.74s-7.825-3.64-7.758-7.981l0.219-14.321c0.008-0.535-0.42-0.976-0.956-0.984s-0.978 0.419-0.986 0.954l-0.219 14.321c-0.067 4.341-3.648 7.807-7.999 7.74s-7.824-3.64-7.758-7.981l0.22-14.321c0.008-0.535-0.42-0.976-0.956-0.984s-0.978 0.419-0.986 0.954l-0.22 14.321c-0.066 4.341-3.648 7.806-7.999 7.74s-7.824-3.64-7.758-7.981l0.22-14.321z"></path>
</symbol>
<symbol id="shipping-car" viewBox="0 0 24 24">
<path d="M18 18.516q0.656 0 1.078-0.445t0.422-1.055-0.422-1.055-1.078-0.445-1.078 0.445-0.422 1.055 0.422 1.055 1.078 0.445zM19.5 9.516h-2.484v2.484h4.453zM6 18.516q0.656 0 1.078-0.445t0.422-1.055-0.422-1.055-1.078-0.445-1.078 0.445-0.422 1.055 0.422 1.055 1.078 0.445zM20.016 8.016l3 3.984v5.016h-2.016q0 1.219-0.891 2.109t-2.109 0.891-2.109-0.891-0.891-2.109h-6q0 1.219-0.891 2.109t-2.109 0.891-2.109-0.891-0.891-2.109h-2.016v-11.016q0-0.797 0.609-1.406t1.406-0.609h14.016v4.031h3z"></path>
</symbol>
<symbol id="icon-about-check" viewBox="0 0 48 32">
<path d="M16.448 32l-16.448-15.104 3.296-3.024 13.152 12.074 28.256-25.946 3.296 3.027-31.552 28.973z"></path>
</symbol>
<symbol id="icon-about-face" viewBox="0 0 32 32">
<path d="M10.185 15.742c1.072 0 1.973-0.384 2.706-1.147 0.731-0.763 1.253-1.678 1.561-2.736l-1.943-0.478c-0.171 0.617-0.448 1.166-0.832 1.639-0.338 0.436-0.861 0.714-1.449 0.714-0.015 0-0.030-0-0.045-0.001l0.002 0c-0.012 0-0.027 0-0.041 0-0.588 0-1.112-0.278-1.446-0.709l-0.003-0.004c-0.373-0.461-0.66-1.009-0.827-1.607l-0.008-0.032-1.941 0.478c0.309 1.058 0.83 1.973 1.561 2.736s1.634 1.147 2.704 1.147zM16.005 25.003c1.029 0 2.011-0.224 2.96-0.672 0.944-0.448 1.826-1.113 2.642-2l-1.463-1.344c-0.631 0.64-1.296 1.129-1.998 1.463-0.702 0.336-1.417 0.503-2.146 0.503-0.731 0-1.445-0.167-2.149-0.503-0.772-0.385-1.431-0.875-1.991-1.46l-0.003-0.003-1.463 1.344c0.843 0.896 1.733 1.566 2.667 2.009s1.915 0.663 2.942 0.663zM21.815 15.742c1.070 0 1.97-0.384 2.704-1.147 0.731-0.763 1.253-1.678 1.561-2.736l-1.943-0.478c-0.171 0.617-0.448 1.166-0.832 1.639-0.338 0.436-0.861 0.714-1.449 0.714-0.014 0-0.029-0-0.043-0.001l0.002 0c-0.013 0-0.028 0.001-0.043 0.001-0.588 0-1.112-0.278-1.446-0.709l-0.003-0.004c-0.373-0.461-0.66-1.009-0.827-1.607l-0.008-0.032-1.941 0.478c0.309 1.058 0.83 1.973 1.561 2.736s1.634 1.147 2.706 1.147zM16 32c-0.030 0-0.066 0-0.102 0-2.218 0-4.328-0.463-6.238-1.299l0.1 0.039c-1.973-0.851-3.659-2.004-5.082-3.42l0.001 0.001c-1.416-1.422-2.569-3.108-3.379-4.977l-0.040-0.105c-0.796-1.809-1.26-3.918-1.26-6.135 0-0.037 0-0.074 0-0.11l-0 0.006c0-2.213 0.421-4.293 1.259-6.24 0.851-1.973 2.004-3.659 3.42-5.082l-0.001 0.001c1.44-1.438 3.131-2.576 5.081-3.419 1.809-0.796 3.918-1.26 6.135-1.26 0.037 0 0.074 0 0.11 0l-0.006-0c2.213 0 4.293 0.421 6.24 1.259 1.973 0.851 3.659 2.004 5.082 3.42l-0.001-0.001c1.44 1.44 2.581 3.131 3.422 5.079 0.839 1.947 1.259 4.027 1.259 6.24s-0.421 4.293-1.259 6.24c-0.851 1.973-2.004 3.659-3.42 5.082l0.001-0.001c-1.44 1.44-3.131 2.581-5.079 3.422-1.809 0.796-3.918 1.26-6.135 1.26-0.038 0-0.077-0-0.115-0l0.006 0zM16 29.474c3.762 0 6.949-1.305 9.559-3.915 2.61-2.613 3.915-5.797 3.915-9.559s-1.305-6.949-3.915-9.559c-2.613-2.61-5.797-3.915-9.559-3.915s-6.949 1.305-9.559 3.915c-2.61 2.613-3.915 5.797-3.915 9.559s1.305 6.949 3.915 9.559c2.613 2.61 5.797 3.915 9.559 3.915z"></path>
</symbol>
<symbol id="icon-about-hands" viewBox="0 0 34 32">
<path d="M16.793 29.472c0.16 0 0.325-0.039 0.491-0.117 0.152-0.068 0.282-0.158 0.393-0.268l-0 0 13.051-13.486c0.366-0.377 0.645-0.784 0.83-1.216 0.187-0.434 0.279-0.887 0.279-1.362 0-0.008 0-0.017 0-0.026 0-1.030-0.425-1.96-1.11-2.624l-0.001-0.001-6.526-6.743c-0.313-0.35-0.693-0.632-1.122-0.828l-0.021-0.009c-0.384-0.168-0.832-0.265-1.303-0.265-0.009 0-0.018 0-0.026 0h0.001c-0.462 0-0.903 0.089-1.326 0.265-0.461 0.201-0.851 0.483-1.17 0.832l-0.002 0.003-0.937 0.967 3.019 3.145c0.366 0.361 0.638 0.773 0.811 1.234 0.176 0.464 0.263 0.944 0.263 1.44 0 1.029-0.334 1.888-0.999 2.574-0.663 0.688-1.495 1.031-2.491 1.031-0.48 0-0.946-0.082-1.397-0.245-0.472-0.176-0.873-0.445-1.199-0.787l-0.001-0.001-3.090-3.168-7.093 7.328c-0.229 0.232-0.37 0.551-0.37 0.902 0 0.004 0 0.008 0 0.013v-0.001c0 0.311 0.103 0.576 0.309 0.798 0.206 0.219 0.457 0.329 0.759 0.329 0.346-0.012 0.656-0.156 0.885-0.382l-0 0 5.36-5.538 1.719 1.778-5.335 5.536c-0.229 0.232-0.37 0.551-0.37 0.902 0 0.004 0 0.008 0 0.013v-0.001c0 0.302 0.105 0.56 0.315 0.777 0.185 0.201 0.45 0.327 0.744 0.327 0.004 0 0.007-0 0.011-0h-0.001c0.16 0 0.322-0.039 0.489-0.119 0.152-0.068 0.282-0.157 0.393-0.265l-0 0 5.547-5.705 1.719 1.776-5.522 5.733c-0.119 0.11-0.211 0.246-0.267 0.4l-0.002 0.007c-0.062 0.15-0.099 0.324-0.101 0.507v0.001c0 0.299 0.105 0.56 0.315 0.777 0.185 0.2 0.449 0.325 0.742 0.325 0.004 0 0.009-0 0.013-0h-0.001c0.348-0 0.661-0.147 0.882-0.381l0.001-0.001 5.547-5.707 1.719 1.778-5.545 5.73c-0.225 0.245-0.364 0.571-0.37 0.929l-0 0.001c0 0.313 0.112 0.571 0.334 0.777 0.224 0.206 0.478 0.311 0.757 0.311zM16.77 32c-0.923 0-1.728-0.331-2.414-0.992-0.655-0.622-1.066-1.496-1.077-2.467l-0-0.002c-0.908-0.045-1.719-0.426-2.318-1.020l0 0c-0.619-0.615-0.955-1.422-1.008-2.418-0.967-0.066-1.749-0.414-2.345-1.049-0.594-0.633-0.914-1.429-0.955-2.389-0.949-0.040-1.795-0.45-2.403-1.089l-0.001-0.001c-0.631-0.663-0.946-1.502-0.946-2.514 0-0.498 0.091-0.983 0.274-1.463 0.183-0.475 0.448-0.894 0.8-1.255l8.834-9.102 4.777 4.937c0.102 0.119 0.229 0.214 0.373 0.276l0.007 0.003c0.147 0.066 0.318 0.105 0.499 0.105 0.002 0 0.005 0 0.007-0h-0c0.297 0 0.553-0.103 0.77-0.306 0.199-0.191 0.323-0.459 0.323-0.756 0-0.015-0-0.029-0.001-0.043l0 0.002c0-0.004 0-0.008 0-0.012 0-0.184-0.037-0.36-0.104-0.52l0.003 0.009c-0.062-0.153-0.154-0.283-0.269-0.388l-0.001-0.001-5.721-5.92c-0.314-0.35-0.697-0.632-1.129-0.826l-0.021-0.009c-0.388-0.168-0.84-0.265-1.314-0.265-0.008 0-0.016 0-0.024 0h0.001c-0.006-0-0.013-0-0.021-0-0.976 0-1.854 0.423-2.459 1.096l-0.003 0.003-5.362 5.566c-0.297 0.309-0.539 0.67-0.729 1.088s-0.299 0.846-0.334 1.28c-0.011 0.11-0.018 0.239-0.018 0.369 0 0.246 0.023 0.487 0.067 0.721l-0.004-0.024c0.066 0.35 0.181 0.681 0.343 0.99l-1.801 1.861c-0.67-1.017-1.069-2.264-1.069-3.604 0-0.924 0.19-1.804 0.532-2.603l-0.016 0.043c0.306-0.722 0.734-1.369 1.285-1.936l5.344-5.522c0.557-0.571 1.218-1.038 1.953-1.369l0.040-0.016c0.72-0.311 1.474-0.466 2.263-0.466 0.791 0 1.543 0.155 2.258 0.466 0.713 0.309 1.367 0.77 1.959 1.385l0.937 0.967 0.933-0.967c0.61-0.615 1.271-1.074 1.986-1.385s1.465-0.466 2.258-0.466c0.789 0 1.543 0.155 2.263 0.466 0.718 0.309 1.374 0.77 1.968 1.385l6.487 6.702c0.594 0.613 1.049 1.312 1.365 2.096s0.473 1.584 0.473 2.4c0 0.818-0.16 1.595-0.473 2.331-0.345 0.785-0.805 1.457-1.366 2.028l-13.050 13.457c-0.336 0.353-0.74 0.638-1.19 0.836l-0.024 0.009c-0.414 0.182-0.897 0.288-1.404 0.288-0.004 0-0.008 0-0.012-0h0.001z"></path>
</symbol>
<symbol id="icon-about-hope" viewBox="0 0 32 32">
<path d="M29.501 22.090s3.075-6.241 1.029-11.786c-2.046-5.544-8.438-8.292-8.438-8.292l-0.044 0.094 0.029-0.063 0.014-0.032s-6.241-3.074-11.786-1.028c-5.544 2.046-8.292 8.437-8.292 8.437s6.241 3.075 11.786 1.029c5.067-1.871 7.798-7.37 8.231-8.303-0.427 0.934-2.835 6.583-0.965 11.651 2.046 5.544 8.438 8.292 8.438 8.292zM0.983 21.208c-2.047-5.546 1.028-11.786 1.028-11.786s6.391 2.748 8.437 8.292c1.87 5.068-0.537 10.717-0.965 11.651 0.432-0.932 3.164-6.432 8.232-8.303 5.544-2.045 11.785 1.029 11.785 1.029s-2.748 6.391-8.292 8.437c-5.544 2.045-11.785-1.029-11.785-1.029l0.042-0.094c-0.026 0.059-0.041 0.089-0.057 0.12l0.012-0.026s-6.391-2.749-8.437-8.292z"></path>
</symbol>
<symbol id="icon-about-lamp" viewBox="0 0 24 32">
<path d="M12 32c-0.866 0-1.612-0.294-2.24-0.88-0.593-0.538-0.977-1.296-1.024-2.144l-0-0.008h6.528c-0.047 0.856-0.431 1.614-1.021 2.15l-0.003 0.002c-0.628 0.586-1.374 0.88-2.24 0.88zM5.572 26.646v-2.516h12.856v2.516h-12.856zM5.836 21.806c-1.765-1.069-3.203-2.511-4.235-4.225l-0.031-0.055c-0.987-1.627-1.57-3.593-1.57-5.695 0-0.032 0-0.064 0-0.096l-0 0.005c0-3.266 1.164-6.042 3.494-8.32 2.33-2.28 5.166-3.42 8.506-3.42s6.176 1.14 8.506 3.42c2.33 2.28 3.494 5.054 3.494 8.32 0 2.092-0.524 4.020-1.57 5.782-1.063 1.77-2.501 3.213-4.211 4.251l-0.055 0.031h-12.328zM6.6 19.29h10.8c1.286-0.894 2.28-2 2.98-3.312 0.7-1.314 1.048-2.726 1.048-4.236 0-2.572-0.914-4.752-2.742-6.542s-4.058-2.684-6.686-2.684-4.858 0.894-6.686 2.684c-1.828 1.79-2.742 3.97-2.742 6.542 0 1.51 0.35 2.92 1.050 4.236 0.7 1.314 1.692 2.418 2.978 3.312z"></path>
</symbol>
<symbol id="icon-about-rectangle" viewBox="0 0 32 32">
<path d="M0 28.139l28.139 3.271 3.271-28.139-28.139-3.271z"></path>
</symbol>
<symbol id="icon-about-spiral" viewBox="0 0 28 32">
<path stroke-linejoin="miter" stroke-linecap="round" stroke-miterlimit="4" stroke-width="1.2632" d="M16.051 16.876c0.029 0.326-0.579 0.505-0.893 0-0.34-0.446-0.090-1.482 0.893-1.781 0.926-0.354 2.391 0.325 2.679 1.781 0.367 1.4-0.741 3.288-2.679 3.563-1.877 0.378-4.204-1.154-4.464-3.563-0.395-2.351 1.575-5.097 4.464-5.345 2.834-0.405 6.014 1.984 6.25 5.345 0.419 3.301-2.405 6.905-6.25 7.126-3.788 0.432-7.826-2.815-8.035-7.126-0.445-4.256 3.235-8.712 8.035-8.908 4.74-0.457 9.64 3.643 9.821 8.908 0.473 5.206-4.068 10.52-9.821 10.689-5.695 0.484-11.45-4.473-11.607-10.689-0.497-6.157 4.898-12.328 11.607-12.471 6.649-0.511 13.264 5.304 13.393 12.471 0.525 7.111-5.731 14.135-13.393 14.252-7.602 0.536-15.076-6.132-15.178-14.252-0.55-8.061 6.562-15.944 15.178-16.034"></path>
</symbol>
<symbol id="squares" viewBox="0 0 32 32">
<path d="M24.384 5.143l-7.693-3.013-3.013 7.693-7.693-3.013-3.013 7.693 7.693 3.013-3.013 7.693 7.693 3.013 3.013-7.693 7.693 3.013 3.013-7.693-7.693-3.013 3.013-7.693zM21.371 12.835l-3.013 7.693-7.693-3.013 3.013-7.693 7.693 3.013z"></path>
</symbol>
<symbol id="nova_poshta" viewBox="0 0 32 32">
<path d="M18.815 25.973v-6.656h-5.642v6.656h-4.319l5.237 5.239c1.053 1.049 2.756 1.049 3.809 0l5.239-5.239h-4.324zM6.023 23.15v-14.3l-5.235 5.237c-1.051 1.051-1.051 2.758 0 3.809l5.235 5.254zM13.167 6.018v6.654h5.648v-6.654h4.324l-5.247-5.228c-1.051-1.051-2.758-1.051-3.809 0l-5.232 5.228h4.315zM31.195 14.080l-5.233-5.228v14.285l5.239-5.239c1.057-1.042 1.070-2.741 0.028-3.798l-0.006-0.006h-0.022l-0.006-0.015z"></path>
</symbol>
<symbol id="icon-main-dots" viewBox="0 0 32 32">
<path d="M3.496 31.95c-0.946 0-1.758-0.34-2.432-1.018-0.626-0.609-1.014-1.459-1.014-2.4 0-0.018 0-0.035 0-0.053l-0 0.003c0-0.954 0.34-1.766 1.018-2.432s1.494-1 2.45-1c0.956 0 1.766 0.336 2.432 1.006 0.668 0.672 1 1.488 1 2.448 0 0.948-0.334 1.76-1.006 2.434-0.605 0.625-1.451 1.013-2.388 1.013-0.021 0-0.042-0-0.063-0.001l0.003 0zM20.246 31.95c-0.946 0-1.758-0.34-2.432-1.018-0.626-0.609-1.014-1.459-1.014-2.4 0-0.018 0-0.035 0-0.053l-0 0.003c0-0.954 0.34-1.766 1.018-2.432s1.494-1 2.45-1c0.954 0 1.766 0.336 2.432 1.006 0.668 0.672 1 1.488 1 2.448 0 0.948-0.334 1.76-1.006 2.434-0.605 0.625-1.451 1.013-2.388 1.013-0.021 0-0.042-0-0.063-0.001l0.003 0zM11.746 23.7c-0.946 0-1.758-0.34-2.432-1.018-0.626-0.609-1.014-1.459-1.014-2.4 0-0.018 0-0.035 0-0.053l-0 0.003c0-0.954 0.34-1.766 1.018-2.432s1.494-1 2.45-1c0.956 0 1.766 0.336 2.432 1.006 0.668 0.672 1 1.488 1 2.448 0 0.948-0.334 1.76-1.006 2.434-0.605 0.625-1.451 1.013-2.388 1.013-0.021 0-0.042-0-0.063-0.001l0.003 0zM28.496 23.7c-0.946 0-1.758-0.34-2.432-1.018-0.626-0.609-1.014-1.459-1.014-2.4 0-0.018 0-0.035 0-0.053l-0 0.003c0-0.954 0.34-1.766 1.018-2.432s1.494-1 2.45-1c0.954 0 1.766 0.336 2.432 1.006 0.668 0.672 1 1.488 1 2.448 0 0.948-0.334 1.76-1.006 2.434-0.605 0.625-1.451 1.013-2.388 1.013-0.021 0-0.042-0-0.063-0.001l0.003 0zM3.496 15.2c-0.946 0-1.756-0.34-2.432-1.020-0.626-0.609-1.014-1.459-1.014-2.4 0-0.018 0-0.035 0-0.053l-0 0.003c0-0.954 0.34-1.766 1.018-2.432s1.494-1 2.45-1c0.956 0 1.766 0.336 2.432 1.006 0.668 0.672 1 1.488 1 2.448 0 0.948-0.334 1.76-1.006 2.434-0.605 0.625-1.451 1.013-2.388 1.013-0.021 0-0.042-0-0.063-0.001l0.003 0zM20.246 15.2c-0.946 0-1.758-0.34-2.432-1.018-0.626-0.609-1.014-1.459-1.014-2.4 0-0.018 0-0.035 0-0.053l-0 0.003c0-0.954 0.34-1.766 1.018-2.432s1.494-1 2.45-1c0.954 0 1.766 0.336 2.432 1.006 0.668 0.672 1 1.488 1 2.448 0 0.948-0.334 1.76-1.006 2.434-0.605 0.625-1.451 1.013-2.388 1.013-0.021 0-0.042-0-0.063-0.001l0.003 0zM11.746 6.95c-0.946 0-1.758-0.34-2.432-1.018-0.626-0.609-1.014-1.459-1.014-2.4 0-0.018 0-0.035 0-0.053l-0 0.003c0-0.954 0.34-1.766 1.018-2.432s1.494-1 2.45-1c0.956 0 1.766 0.336 2.432 1.006 0.668 0.672 1 1.488 1 2.448 0 0.948-0.334 1.76-1.006 2.434-0.605 0.625-1.451 1.013-2.388 1.013-0.021 0-0.042-0-0.063-0.001l0.003 0zM28.496 6.95c-0.946 0-1.758-0.34-2.432-1.018-0.626-0.609-1.014-1.459-1.014-2.4 0-0.018 0-0.035 0-0.053l-0 0.003c0-0.954 0.34-1.766 1.018-2.432s1.494-1 2.45-1c0.954 0 1.766 0.336 2.432 1.006 0.668 0.672 1 1.488 1 2.448 0 0.948-0.334 1.76-1.006 2.434-0.605 0.625-1.451 1.013-2.388 1.013-0.021 0-0.042-0-0.063-0.001l0.003 0z"></path>
</symbol>
<symbol id="icon-main-pliers" viewBox="0 0 17 32">
<path d="M1.546 31.782c-0.4-0.884-0.704-1.983-0.909-3.292-0.207-1.309-0.321-2.751-0.346-4.327 0-2.073 0.215-3.913 0.646-5.517 0.431-1.607 1.105-2.992 2.028-4.156v-7.217l4.345-7.236h2.855l4.345 7.236v7.217c0.921 1.164 1.594 2.54 2.019 4.128 0.423 1.588 0.636 3.375 0.636 5.363 0 1.54-0.112 2.989-0.336 4.346s-0.531 2.509-0.918 3.455c-0.813-0.339-1.488-0.909-2.028-1.709-0.504-0.717-0.816-1.602-0.845-2.557l-0-0.007c-0.002-0.060-0.003-0.13-0.003-0.2 0-0.668 0.101-1.312 0.287-1.918l-0.012 0.046c0.207-0.703 0.31-1.539 0.31-2.509 0-1.491-0.378-2.943-1.137-4.353-0.756-1.412-2.007-2.531-3.753-3.356-1.734 0.825-2.982 1.943-3.747 3.356-0.764 1.411-1.145 2.876-1.145 4.39 0 0.922 0.102 1.74 0.308 2.455 0.19 0.613 0.303 1.319 0.31 2.050l0 0.004c0 0.945-0.282 1.833-0.847 2.665-0.563 0.829-1.251 1.379-2.063 1.644zM8.727 10.127c-0.007 0-0.016 0-0.024 0-0.379 0-0.721-0.156-0.966-0.407l-0-0c-0.252-0.246-0.409-0.588-0.409-0.968 0-0.008 0-0.017 0-0.025l-0 0.001c0-0.255 0.067-0.489 0.199-0.7 0.134-0.212 0.31-0.385 0.528-0.519v-4.655l-3.001 4.982v4.564h7.364v-4.564l-3.001-4.982v4.655c0.231 0.134 0.409 0.305 0.537 0.519 0.12 0.196 0.191 0.434 0.191 0.688 0 0.004 0 0.008-0 0.011v-0.001c0 0.007 0 0.014 0 0.022 0 0.382-0.16 0.726-0.417 0.969l-0.001 0.001c-0.25 0.253-0.597 0.409-0.981 0.409-0.007 0-0.014-0-0.021-0h0.001z"></path>
</symbol>
<symbol id="icon-main-price-tag" viewBox="0 0 34 32">
<path d="M20.084 32.8c-0.492 0.492-1.078 0.738-1.758 0.738s-1.267-0.246-1.757-0.738l-15.66-15.68c-0.244-0.227-0.433-0.509-0.548-0.827l-0.005-0.015c-0.093-0.275-0.147-0.591-0.147-0.92 0-0.004 0-0.007 0-0.011v0.001-12.716c0-0.702 0.229-1.28 0.685-1.736 0.455-0.456 1.034-0.685 1.735-0.685h12.716c0.33 0 0.655 0.045 0.973 0.136 0.32 0.091 0.615 0.271 0.883 0.539l15.597 15.577c0.519 0.519 0.778 1.123 0.778 1.811s-0.259 1.292-0.778 1.811l-12.716 12.716zM18.462 31.136l12.696-12.716-15.801-15.788h-12.726v12.724l15.832 15.781zM7.023 9.095c0.574 0 1.075-0.211 1.499-0.633 0.424-0.421 0.637-0.918 0.637-1.489 0-0.573-0.211-1.069-0.633-1.494-0.372-0.392-0.897-0.637-1.48-0.637-0.004 0-0.009 0-0.013 0h0.001c-0.583 0-1.083 0.211-1.499 0.633-0.419 0.421-0.628 0.918-0.628 1.489 0 0.573 0.209 1.069 0.627 1.494s0.915 0.637 1.491 0.637z"></path>
</symbol>
<symbol id="icon-main-shop" viewBox="0 0 35 32">
<path d="M32.787 14.285v15.136c0 0.687-0.249 1.289-0.749 1.807-0.502 0.517-1.083 0.775-1.748 0.775h-26.004c-0.666 0-1.249-0.26-1.75-0.775-0.464-0.457-0.751-1.091-0.751-1.793 0-0.005 0-0.009 0-0.014v0.001-15.136c-0.796-0.662-1.371-1.566-1.61-2.598l-0.006-0.032c-0.108-0.419-0.17-0.901-0.17-1.397 0-0.623 0.097-1.223 0.278-1.785l-0.011 0.041 1.843-6.005c0.232-0.791 0.632-1.407 1.203-1.847 0.529-0.411 1.203-0.66 1.935-0.66 0.018 0 0.035 0 0.053 0l-0.003-0h23.799c0.017-0 0.037-0 0.057-0 1.571 0 2.896 1.050 3.312 2.487l0.006 0.024 1.881 6c0.165 0.51 0.261 1.096 0.261 1.705 0 0.512-0.067 1.007-0.193 1.479l0.009-0.040c-0.261 1.063-0.842 1.964-1.633 2.621l-0.008 0.007zM21.18 12.937c0.845 0 1.556-0.284 2.136-0.853s0.817-1.258 0.716-2.066l-1.085-7.433h-4.389v7.39c0 0.789 0.249 1.481 0.751 2.073 0.502 0.594 1.125 0.889 1.871 0.889zM13.125 12.937c0.825 0 1.521-0.289 2.085-0.865 0.566-0.58 0.85-1.277 0.85-2.099v-7.388h-4.389l-1.063 7.433c-0.114 0.779 0.085 1.461 0.599 2.044 0.512 0.583 1.154 0.876 1.919 0.876zM5.28 12.937c0.713 0 1.322-0.249 1.829-0.748s0.803-1.109 0.891-1.834l1.151-7.77h-4.41l-2.021 6.535c-0.305 0.974-0.183 1.852 0.358 2.639 0.545 0.786 1.277 1.179 2.201 1.179zM29.299 12.937c0.921 0 1.661-0.381 2.219-1.146 0.557-0.761 0.684-1.654 0.381-2.672l-1.978-6.535h-4.43l1.128 7.77c0.087 0.718 0.381 1.329 0.888 1.831 0.502 0.502 1.101 0.751 1.793 0.751zM4.287 29.423h26.004v-13.948c0.029 0.031-0.074 0.047-0.308 0.047h-0.692c-0.718 0-1.402-0.157-2.049-0.472s-1.286-0.801-1.914-1.459c-0.447 0.596-1.018 1.074-1.677 1.402l-0.027 0.012c-0.691 0.344-1.454 0.517-2.291 0.517-0.864 0-1.604-0.128-2.219-0.382-0.616-0.254-1.213-0.682-1.793-1.281-0.434 0.54-0.985 0.952-1.651 1.236-0.637 0.271-1.378 0.428-2.156 0.428-0.029 0-0.058-0-0.086-0.001l0.004 0c-0.028 0.001-0.060 0.001-0.093 0.001-0.824 0-1.606-0.179-2.309-0.5l0.035 0.014c-0.719-0.341-1.317-0.832-1.774-1.435l-0.009-0.012c-0.71 0.642-1.391 1.125-2.049 1.448-0.658 0.322-1.307 0.483-1.945 0.483h-0.623c-0.021 0.002-0.045 0.002-0.069 0.002-0.11 0-0.216-0.018-0.315-0.051l0.007 0.002v13.948z"></path>
</symbol>
<symbol id="icon-main-star" viewBox="0 0 31 32">
<path d="M9.192 26.328l6.141-3.943 6.141 3.984-1.641-7.469 5.407-5.040-7.125-0.685-2.781-7.055-2.761 7.040-7.127 0.656 5.408 5.021-1.661 7.489zM5.871 31.307l2.491-11.58-8.361-7.776 11.047-1.037 4.287-10.913 4.307 10.913 11.027 1.037-8.363 7.776 2.509 11.58-9.472-6.147-9.471 6.147z"></path>
</symbol>
<symbol id="icon-main-vertical-spiral" viewBox="0 0 16 32">
<path stroke-linejoin="miter" stroke-linecap="round" stroke-miterlimit="4" stroke-width="0.7559" d="M10.354 0.504c-5.44 0-9.85 1.551-9.85 3.465s4.41 3.465 9.85 3.465c3.049 0 5.52-0.657 5.52-1.466s-2.472-1.467-5.52-1.467c-5.44 0-9.85 1.551-9.85 3.465s4.41 3.465 9.85 3.465c3.049 0 5.52-0.657 5.52-1.466s-2.472-1.467-5.52-1.467c-5.44 0-9.85 1.561-9.85 3.486s4.41 3.486 9.85 3.486c3.049 0 5.52-0.657 5.52-1.467s-2.472-1.466-5.52-1.466c-5.44 0-9.85 1.551-9.85 3.465s4.41 3.465 9.85 3.465c3.049 0 5.52-0.656 5.52-1.466s-2.472-1.467-5.52-1.467c-5.44 0-9.85 1.551-9.85 3.465s4.41 3.465 9.85 3.465c3.049 0 5.52-0.657 5.52-1.466s-2.472-1.467-5.52-1.467c-5.44 0-9.85 1.551-9.85 3.465s4.41 3.465 9.85 3.465c3.049 0 5.52-0.657 5.52-1.467s-2.472-1.466-5.52-1.466c-5.44 0-9.85 1.56-9.85 3.485s4.41 3.486 9.85 3.486"></path>
</symbol>
<symbol id="icon-main-wire" viewBox="0 0 32 32">
<path d="M3.072 32c-0.018 0.001-0.038 0.001-0.059 0.001-0.344 0-0.657-0.136-0.887-0.357l0 0c-0.22-0.225-0.357-0.533-0.357-0.873 0-0.018 0-0.036 0.001-0.054l-0 0.003v-2.244h-1.771v-6.642c0-0.38 0.117-0.69 0.354-0.924 0.225-0.221 0.534-0.357 0.874-0.357 0.018 0 0.035 0 0.053 0.001l-0.002-0h2.288v-13.913c0-1.89 0.693-3.468 2.080-4.738s3.052-1.904 4.999-1.904c1.858 0 3.431 0.644 4.715 1.932 1.287 1.289 1.929 2.859 1.929 4.711v18.715c0 1.134 0.391 2.094 1.172 2.88 0.78 0.788 1.742 1.18 2.88 1.18 1.232 0 2.292-0.382 3.182-1.15 0.889-0.768 1.333-1.737 1.333-2.91v-13.892h-2.288c-0.016 0.001-0.034 0.001-0.052 0.001-0.34 0-0.647-0.135-0.873-0.355l0 0c-0.219-0.225-0.355-0.533-0.355-0.873 0-0.018 0-0.036 0.001-0.054l-0 0.003v-6.644h1.772v-2.244c0-0.38 0.117-0.69 0.354-0.924 0.225-0.221 0.534-0.357 0.874-0.357 0.018 0 0.035 0 0.053 0.001l-0.003-0h3.588c0.375 0 0.686 0.119 0.932 0.356 0.228 0.223 0.369 0.533 0.369 0.877 0 0.017-0 0.033-0.001 0.050l0-0.002v2.244h1.772v6.644c0.001 0.015 0.001 0.032 0.001 0.049 0 0.342-0.139 0.652-0.364 0.875l-0 0c-0.226 0.22-0.536 0.356-0.877 0.356-0.014 0-0.027-0-0.041-0.001l0.002 0h-2.288v13.89c0 1.89-0.697 3.468-2.089 4.738-1.394 1.269-3.065 1.904-5.013 1.904-1.856 0-3.424-0.645-4.702-1.932-1.28-1.289-1.92-2.859-1.92-4.711v-18.713c0.001-0.023 0.001-0.051 0.001-0.079 0-1.096-0.449-2.088-1.174-2.801l-0.001-0.001c-0.784-0.788-1.749-1.18-2.894-1.18-1.234 0-2.293 0.382-3.175 1.15-0.811 0.682-1.324 1.697-1.324 2.832 0 0.027 0 0.055 0.001 0.082l-0-0.004v13.913h2.288c0.37 0 0.676 0.119 0.916 0.356 0.225 0.224 0.364 0.534 0.364 0.876 0 0.017-0 0.034-0.001 0.051l0-0.002v6.642h-1.772v2.244c0.001 0.014 0.001 0.031 0.001 0.048 0 0.343-0.141 0.654-0.369 0.877l-0 0c-0.231 0.221-0.545 0.356-0.89 0.356-0.014 0-0.029-0-0.043-0.001l0.002 0h-3.566z"></path>
</symbol>
<symbol id="icon-main-wrench" viewBox="0 0 34 32">
<path d="M25.977 31.511l-11.417-11.511c-0.544 0.201-1.229 0.399-1.929 0.556l-0.116 0.022c-0.625 0.141-1.344 0.222-2.081 0.222-0.004 0-0.008 0-0.012 0h0.001c-2.839 0-5.253-0.99-7.241-2.969-1.989-1.98-2.983-4.384-2.983-7.211 0-0.889 0.117-1.76 0.352-2.606 0.26-0.93 0.595-1.739 1.012-2.496l-0.030 0.060 6.379 6.375 4.133-3.845-6.556-6.553c0.77-0.436 1.564-0.777 2.391-1.026 0.825-0.249 1.669-0.373 2.532-0.373 2.916 0 5.392 1.017 7.426 3.051 2.036 2.036 3.052 4.507 3.052 7.413 0 0.711-0.075 1.41-0.222 2.091-0.179 0.817-0.378 1.502-0.616 2.167l0.038-0.123 11.467 11.422c0.302 0.289 0.489 0.696 0.489 1.146 0 0.003 0 0.007-0 0.010v-0.001c0 0.004 0 0.008 0 0.013 0 0.449-0.189 0.853-0.492 1.139l-0.001 0.001-3.312 3.028c-0.279 0.287-0.669 0.464-1.1 0.464-0.009 0-0.019-0-0.028-0l0.001 0c-0.006 0-0.014 0-0.021 0-0.436 0-0.831-0.178-1.114-0.466l-0-0zM27.221 29.111l1.822-1.822-12.133-12.112c0.46-0.622 0.812-1.344 1.056-2.165 0.245-0.823 0.366-1.618 0.366-2.389 0-2.222-0.832-4.116-2.5-5.678-1.666-1.563-3.573-2.345-5.723-2.345l4.645 4.734c0.215 0.209 0.349 0.501 0.349 0.825 0 0.035-0.002 0.069-0.005 0.102l0-0.004c-0.018 0.365-0.172 0.69-0.412 0.93l-0 0-5.888 5.458c-0.249 0.208-0.573 0.334-0.927 0.334-0.005 0-0.009-0-0.014-0h0.001c-0.011 0-0.025 0.001-0.038 0.001-0.324 0-0.616-0.137-0.822-0.356l-0.001-0.001-4.377-4.334c0.044 2.311 0.843 4.215 2.396 5.712 1.552 1.497 3.355 2.244 5.404 2.244 0.838-0.009 1.642-0.143 2.398-0.382l-0.058 0.016c0.83-0.241 1.553-0.602 2.194-1.070l-0.020 0.014 12.284 12.29z"></path>
</symbol>
<symbol id="icon-arrow-right" viewBox="0 0 52 32">
<path d="M45.332 17.531l-45.332-0.031v-3.156h45.332l-12.104-12.105 2.272-2.239 15.938 15.937-15.938 15.938-2.272-2.24 12.104-12.104z"></path>
</symbol>
</defs>
</svg>