<svg aria-hidden="true" style="position: absolute; width: 0; height: 0; overflow: hidden;" version="1.1" xmlns="http://www.w3.org/2000/svg" xmlns:xlink="http://www.w3.org/1999/xlink">
<defs>
<symbol id="warm" viewBox="0 0 55 32">
<path d="M1.598 7.875c0.008-0.535-0.42-0.976-0.956-0.984l0.106-6.891c4.351 0.067 7.824 3.64 7.758 7.981l-0.22 14.321c-0.008 0.535 0.42 0.976 0.956 0.984s0.978-0.419 0.986-0.954l0.22-14.321c0.066-4.341 3.648-7.807 7.999-7.74s7.824 3.64 7.758 7.981l-0.22 14.321c-0.008 0.535 0.42 0.976 0.957 0.984s0.978-0.419 0.986-0.954l0.22-14.321c0.066-4.341 3.648-7.807 7.999-7.74s7.825 3.64 7.758 7.981l-0.219 14.321c-0.008 0.535 0.42 0.976 0.956 0.984s0.978-0.419 0.986-0.954l0.219-14.321c0.067-4.341 3.648-7.807 7.999-7.74l-0.106 6.891c-0.536-0.008-0.978 0.419-0.986 0.954l-0.22 14.321c-0.066 4.341-3.648 7.806-7.999 7.74s-7.825-3.64-7.758-7.981l0.219-14.321c0.008-0.535-0.42-0.976-0.956-0.984s-0.978 0.419-0.986 0.954l-0.219 14.321c-0.067 4.341-3.648 7.807-7.999 7.74s-7.824-3.64-7.758-7.981l0.22-14.321c0.008-0.535-0.42-0.976-0.956-0.984s-0.978 0.419-0.986 0.954l-0.22 14.321c-0.066 4.341-3.648 7.806-7.999 7.74s-7.824-3.64-7.758-7.981l0.22-14.321z"></path>
</symbol>
</defs>
</svg>